<?xml version="1.0" encoding="utf-8"?>
<!-- Generator: Adobe Illustrator 25.2.3, SVG Export Plug-In . SVG Version: 6.00 Build 0)  -->
<svg version="1.1" id="Capa_1" xmlns="http://www.w3.org/2000/svg" xmlns:xlink="http://www.w3.org/1999/xlink" x="0px" y="0px"
	 viewBox="0 0 800 800" style="enable-background:new 0 0 800 800;" xml:space="preserve">
<style type="text/css">
	.st0{fill:#483D8B;}
	.st1{fill:#ADD8E6;}
</style>
<path class="st0" d="M688.2,800H111.8C50.1,800,0,749.9,0,688.2V111.8C0,50.1,50.1,0,111.8,0h576.4C749.9,0,800,50.1,800,111.8
	v576.4C800,749.9,749.9,800,688.2,800z"/>
<g>
	<path class="st1" d="M567.8,118.5h-96.5l-3.9-17.6c-1.3-6.1-6.8-10.5-13.1-10.5H345.7c-6.3,0-11.7,4.4-13.1,10.5l-3.9,17.6h-96.5
		c-35.3,0-64,28.7-64,64v463.1c0,35.3,28.7,64,64,64h335.7c35.3,0,64-28.7,64-64V182.5C631.8,147.2,603.1,118.5,567.8,118.5z
		 M590,645.6c0,12.2-9.9,22.2-22.2,22.2H232.2c-12.2,0-22.2-9.9-22.2-22.2V182.5c0-12.2,9.9-22.2,22.2-22.2h87.2l-2.2,10
		c-0.9,4,0.1,8.1,2.6,11.3c2.6,3.2,6.4,5,10.5,5h139.5c4.1,0,7.9-1.8,10.5-5c2.6-3.2,3.5-7.3,2.6-11.3l-2.2-10h87.2
		c12.2,0,22.2,9.9,22.2,22.2V645.6z"/>
	<path class="st1" d="M315.1,338.2H372l-13.5-9.2c-19.1-13-24-39.1-11-58.1c13-19.1,39.1-24,58.1-10.9l2.2,1.5v-16
		c0-10.3-8.4-18.7-18.7-18.7h-74c-10.3,0-18.7,8.4-18.7,18.7v74C296.4,329.8,304.8,338.2,315.1,338.2z"/>
	<path class="st1" d="M489.3,235.5l-65.6,62.1l-29.9-20.4c-9.5-6.5-22.5-4.1-29.1,5.5c-6.5,9.5-4.1,22.6,5.5,29.1l43.8,29.9
		c3.6,2.5,7.7,3.6,11.8,3.6c5.2,0,10.4-1.9,14.4-5.7l77.8-73.7c8.4-7.9,8.7-21.2,0.8-29.6C510.9,227.9,497.7,227.6,489.3,235.5z"/>
	<path class="st1" d="M315.1,481.9H372l-13.5-9.2c-19.1-13-24-39.1-11-58.1c13-19.1,39.1-24,58.1-11l2.2,1.5v-16
		c0-10.3-8.4-18.7-18.7-18.7h-74c-10.3,0-18.7,8.4-18.7,18.7v74C296.4,473.5,304.8,481.9,315.1,481.9z"/>
	<path class="st1" d="M489.3,379.2l-65.6,62.1l-29.9-20.4c-9.5-6.5-22.5-4.1-29.1,5.5c-6.5,9.5-4.1,22.6,5.5,29.1l43.8,29.9
		c3.6,2.5,7.7,3.6,11.8,3.6c5.2,0,10.4-1.9,14.4-5.7l77.8-73.7c8.4-7.9,8.7-21.2,0.8-29.6C510.9,371.6,497.7,371.3,489.3,379.2z"/>
	<path class="st1" d="M389.1,514.1h-74c-10.3,0-18.7,8.4-18.7,18.7v74c0,10.3,8.4,18.7,18.7,18.7h74c10.3,0,18.7-8.4,18.7-18.7v-74
		C407.9,522.5,399.5,514.1,389.1,514.1z"/>
</g>
</svg>
